<?xml version="1.0" standalone="no"?>
<!DOCTYPE svg PUBLIC "-//W3C//DTD SVG 20010904//EN"
 "http://www.w3.org/TR/2001/REC-SVG-20010904/DTD/svg10.dtd">
<svg version="1.0" xmlns="http://www.w3.org/2000/svg"
 width="521.000000pt" height="488.000000pt" viewBox="0 0 521.000000 488.000000"
 preserveAspectRatio="xMidYMid meet">

<g transform="translate(0.000000,488.000000) scale(0.100000,-0.100000)"
fill="#000000" stroke="none">
<path d="M0 3344 l0 -1536 58 7 c253 30 543 136 760 278 472 309 755 789 792
1340 9 144 20 167 75 167 54 0 62 -20 75 -175 40 -512 283 -955 691 -1263 273
-207 589 -323 963 -355 134 -11 161 -16 172 -32 18 -24 18 -55 -1 -82 -13 -18
-28 -22 -122 -28 -60 -3 -161 -15 -226 -25 -725 -119 -1305 -667 -1447 -1370
-12 -57 -24 -142 -27 -187 l-6 -83 1727 0 1726 0 0 398 0 399 -73 46 c-41 26
-108 82 -149 125 -210 220 -288 509 -229 854 25 144 59 247 121 367 64 124
128 208 240 314 l90 86 0 1146 0 1145 -2605 0 -2605 0 0 -1536z"/>
<path d="M0 831 l0 -831 806 0 807 0 -6 83 c-32 448 -283 907 -659 1200 -264
206 -544 322 -900 372 l-48 6 0 -830z"/>
</g>
</svg>
